<?xml version="1.0" encoding="UTF-8"?> <svg xmlns="http://www.w3.org/2000/svg" width="79" height="97" viewBox="0 0 79 97" fill="none"> <path d="M71.4375 3H7.5625C6.35245 3 5.19196 3.48069 4.33633 4.33633C3.48069 5.19196 3 6.35245 3 7.5625V89.6875C3 90.8976 3.48069 92.058 4.33633 92.9137C5.19196 93.7693 6.35245 94.25 7.5625 94.25H71.4375C72.6476 94.25 73.808 93.7693 74.6637 92.9137C75.5193 92.058 76 90.8976 76 89.6875V7.5625C76 6.35245 75.5193 5.19196 74.6637 4.33633C73.808 3.48069 72.6476 3 71.4375 3V3Z" stroke="black" stroke-width="5" stroke-linecap="round" stroke-linejoin="round"></path> <path d="M23.5312 62.3125H55.4687" stroke="black" stroke-width="5" stroke-linecap="round" stroke-linejoin="round"></path> <path d="M23.5312 76H39.5" stroke="black" stroke-width="5" stroke-linecap="round" stroke-linejoin="round"></path> <path d="M53.1875 23.5312L34.9375 41.7812L25.8125 32.6562" stroke="black" stroke-width="5" stroke-linecap="round" stroke-linejoin="round"></path> </svg> 